<?xml version="1.0" encoding="utf-8"?>
<svg xmlns="http://www.w3.org/2000/svg" viewBox="147.8682 45.3071 430.271 373.0581" width="430.271px" height="373.058px">
  <path d="M 428.936 67.365 C 428.936 68.025 443.12 80.271 447.936 86.365 C 449.268 88.032 450.602 89.699 451.936 91.365 C 451.425 91.573 450.915 91.78 450.389 91.994 C 438.186 97.165 427.556 104.557 416.936 112.365 C 416.348 111.621 415.76 110.878 415.154 110.111 C 408.337 101.674 400.053 94.26 388.936 92.365 C 372.535 91.362 361.917 94.956 349.233 105.643 C 347.634 107.077 346.049 108.525 344.483 109.994 C 342.456 111.881 340.4 113.689 338.299 115.49 C 333.093 120.028 328.244 124.911 323.373 129.803 C 322.466 130.706 321.559 131.609 320.625 132.539 C 316.04 137.131 311.603 141.781 307.377 146.705 C 305.653 148.691 303.827 150.539 301.936 152.365 C 299.356 154.905 296.914 157.49 294.561 160.24 C 291.819 163.432 288.929 166.408 285.936 169.365 C 282.984 172.281 280.132 175.211 277.436 178.365 C 274.74 181.519 271.888 184.449 268.936 187.365 C 265.397 190.866 262.028 194.424 258.811 198.221 C 257.334 199.909 255.801 201.548 254.248 203.166 C 253.783 203.654 253.319 204.142 252.84 204.645 C 251.494 206.054 250.137 207.452 248.779 208.85 C 246.691 211.111 246.691 211.111 247.131 213.313 C 248.067 215.699 249.142 216.928 250.967 218.722 C 251.605 219.356 252.243 219.991 252.901 220.645 C 253.596 221.321 254.29 221.997 255.006 222.693 C 255.72 223.401 256.435 224.109 257.171 224.838 C 259.461 227.104 261.76 229.36 264.061 231.615 C 266.338 233.857 268.614 236.102 270.886 238.349 C 272.3 239.746 273.717 241.14 275.137 242.53 C 279.078 246.412 282.804 250.41 286.415 254.601 C 288.151 256.614 289.94 258.568 291.76 260.506 C 292.396 261.184 293.032 261.862 293.688 262.56 C 294.646 263.578 294.646 263.578 295.623 264.615 C 296.599 265.655 296.599 265.655 297.594 266.717 C 300.662 269.981 303.739 273.225 306.936 276.365 C 308.813 275.586 336.687 249.656 338.936 247.365 C 341.935 250.288 344.689 253.192 347.186 256.553 C 350.461 260.844 354.007 264.808 357.647 268.791 C 361.25 272.844 364.599 277.092 367.936 281.365 C 364.244 285.888 360.459 289.766 356.014 293.541 C 353.849 295.442 351.83 297.436 349.811 299.49 C 346.67 302.681 343.431 305.569 339.936 308.365 C 341.43 311.839 343.415 314.103 346.071 316.776 C 346.927 317.641 347.783 318.506 348.664 319.397 C 349.594 320.326 350.524 321.256 351.483 322.213 C 352.455 323.189 353.428 324.166 354.4 325.143 C 356.445 327.195 358.493 329.243 360.544 331.289 C 362.623 333.363 364.696 335.443 366.763 337.529 C 394.674 366.925 394.674 366.925 431.936 379.365 C 433.314 379.444 433.314 379.444 434.721 379.525 C 458.686 380.222 481.046 373.18 498.713 356.689 C 502.032 353.219 504.563 349.527 506.936 345.365 C 507.502 344.414 507.502 344.414 508.08 343.443 C 515.344 330.277 516.835 313.302 513.373 298.865 C 508.539 282.415 497.628 270.049 482.936 261.365 C 470.595 254.716 458.982 254.054 445.248 254.178 C 443.693 254.185 442.138 254.191 440.583 254.197 C 428.352 254.267 419.421 255.026 407.21 255.729 C 407.84 252.988 409.412 250.52 410.429 247.856 C 412.1 243.478 411.734 241.806 412.153 235.337 C 412.669 227.368 411.642 227.024 412.755 225.911 C 414.721 225.563 419.51 225.046 420.79 224.874 C 422.144 224.697 423.499 224.521 424.853 224.346 C 425.534 224.257 426.209 224.071 426.916 224.076 C 492.436 224.515 487.962 220.212 517.748 236.115 C 540.601 248.316 548.131 275.848 552.514 300.635 C 555.674 328.578 550.063 355.48 532.756 377.955 C 515.141 399.757 492.475 414.115 464.371 417.347 C 429.431 420.916 399.609 415.607 371.936 393.365 C 371.375 392.917 370.815 392.468 370.237 392.006 C 356.226 380.694 343.327 368.113 331.166 354.853 C 326.581 349.864 321.762 345.12 316.936 340.365 C 316.091 339.419 315.247 338.473 314.377 337.498 C 313.571 336.794 312.766 336.09 311.936 335.365 C 307.415 335.864 304.63 338.953 301.373 341.865 C 300.112 342.97 298.851 344.075 297.588 345.178 C 296.656 345.996 296.656 345.996 295.705 346.83 C 293.325 348.896 290.887 350.884 288.436 352.865 C 284.208 356.297 280.06 359.811 275.936 363.365 C 270.946 367.665 265.893 371.87 260.779 376.021 C 257.459 378.758 254.195 381.556 250.936 384.365 C 245.955 388.657 240.913 392.856 235.807 396.998 C 231.72 400.368 227.709 403.825 223.705 407.293 C 215.553 414.333 215.553 414.333 212.561 414.49 C 207.355 412.259 204.815 408.262 202.479 403.221 C 200.386 397.943 198.741 392.995 197.936 387.365 C 197.776 386.627 197.616 385.888 197.451 385.127 C 197.121 382.55 197.161 380.864 197.936 378.365 C 200.396 375.761 203.036 373.746 205.92 371.623 C 209.5 368.943 212.49 365.926 215.572 362.701 C 218.22 360.084 221.003 357.668 223.815 355.23 C 227.224 352.232 230.513 349.11 233.811 345.99 C 238.926 341.171 244.079 336.408 249.322 331.728 C 253.34 328.095 257.29 324.391 261.235 320.68 C 264.307 317.795 267.395 314.94 270.565 312.162 C 271.124 311.667 271.684 311.172 272.26 310.662 C 273.779 309.323 275.308 307.996 276.838 306.67 C 279.384 304.392 279.384 304.392 278.936 300.365 C 276.981 298.048 275.039 295.981 272.873 293.877 C 272.248 293.255 271.624 292.634 270.98 291.994 C 268.974 290.004 266.955 288.029 264.936 286.053 C 263.605 284.734 262.276 283.414 260.947 282.094 C 255.315 276.515 249.677 270.989 243.64 265.845 C 240.543 263.156 237.649 260.263 234.748 257.365 C 234.158 256.788 233.569 256.21 232.961 255.615 C 230.062 252.726 227.566 249.921 225.322 246.49 C 223.283 243.293 223.283 243.293 220.63 242.365 C 217.337 242.365 216.177 243.433 213.89 245.706 C 213.412 246.211 212.935 246.716 212.444 247.236 C 211.68 248.009 211.68 248.009 210.901 248.797 C 209.273 250.452 207.667 252.127 206.061 253.803 C 204.988 254.897 203.914 255.99 202.838 257.082 C 197.813 262.207 192.897 267.4 188.236 272.862 C 187.187 274.075 186.07 275.231 184.936 276.365 C 184.604 278.994 184.604 278.994 184.617 282.1 C 184.597 283.301 184.577 284.502 184.557 285.74 C 184.539 287.693 184.539 287.693 184.522 289.685 C 184.503 291.028 184.483 292.37 184.463 293.713 C 184.412 297.247 184.372 300.782 184.335 304.316 C 184.295 307.922 184.244 311.529 184.194 315.135 C 184.096 322.211 184.016 329.288 183.936 336.365 C 172.056 336.365 160.176 336.365 147.936 336.365 C 147.906 310.99 147.885 285.615 147.873 260.24 C 147.873 259.3 147.872 258.361 147.872 257.393 C 147.849 206.589 147.918 155.791 148.436 104.99 C 148.448 103.817 148.46 102.644 148.472 101.435 C 148.613 87.745 148.767 74.055 148.936 60.365 C 160.486 60.365 172.036 60.365 183.936 60.365 C 184.266 112.175 184.596 163.985 184.936 217.365 C 198.239 204.149 198.239 204.149 210.936 190.365 C 212.416 188.846 213.913 187.342 215.436 185.865 C 218.222 183.117 220.889 180.337 223.436 177.365 C 226.616 173.655 230.023 170.235 233.529 166.834 C 236.158 164.137 238.608 161.323 241.075 158.479 C 244.073 155.073 247.193 151.786 250.311 148.49 C 255.209 143.289 260.065 138.059 264.822 132.728 C 267.218 130.05 269.639 127.395 272.061 124.74 C 274.902 121.618 277.725 118.485 280.498 115.303 C 281.06 114.659 281.622 114.016 282.201 113.353 C 283.382 112 284.559 110.643 285.733 109.283 C 304.588 87.833 325.993 66.979 353.936 58.365 C 354.902 58.048 355.869 57.731 356.865 57.404 C 378.255 51.59 411.084 52.574 428.936 67.365 Z" style="stroke-width: 1; fill: #ffffff;" transform="matrix(0.9999999999999999, 0, 0, 0.9999999999999999, 0, -1.4210854715202004e-14)"/>
  <path d="M 573.815 49.705 C 575.2 47.473 576.952 44.886 577.936 45.365 C 578.619 60.441 577.518 74.936 575.561 89.865 C 575.394 91.149 575.394 91.149 575.224 92.459 C 574.899 94.94 574.565 97.418 574.225 99.896 C 574.076 101 574.076 101 573.925 102.126 C 572.808 109.987 571.128 116.84 566.873 123.615 C 566.475 124.26 566.078 124.905 565.668 125.569 C 546.421 156.298 518.442 173.995 483.719 182.657 C 478.397 184.011 473.104 185.467 467.811 186.928 C 466.768 187.209 465.726 187.49 464.651 187.779 C 463.649 188.056 462.648 188.333 461.615 188.619 C 460.736 188.86 459.857 189.1 458.951 189.348 C 454.818 190.742 450.896 192.544 446.936 194.365 C 453.446 193.212 459.951 192.038 466.455 190.85 C 468.659 190.449 470.864 190.054 473.07 189.663 C 511.034 182.93 545.147 167.169 567.998 134.74 C 568.984 133.287 571.37 130.25 572.34 128.785 C 573.34 130.785 571.936 132.365 571.221 134.658 C 565.273 156.137 551.903 170.841 536.936 186.365 C 536.033 187.38 536.033 187.38 535.112 188.416 C 514.867 210.599 477.238 216.376 448.936 218.365 C 445.226 218.514 441.523 218.55 437.811 218.553 C 436.861 218.565 435.911 218.577 434.932 218.59 C 428.402 218.603 421.474 218.262 415.936 214.365 C 412.863 212.196 410.072 206.796 408.936 204.365 C 405.82 198.694 404.117 193.809 403.186 187.428 C 403.061 186.681 402.936 185.934 402.807 185.164 C 399.877 166.507 404.848 146.68 415.936 131.365 C 433.559 109.743 461.155 99.389 485.844 87.805 C 491.172 85.281 502.936 78.365 505.936 78.365 C 502.966 82.655 499.996 86.945 496.936 91.365 C 498.236 90.771 499.537 90.177 500.877 89.564 C 513.721 83.794 526.691 78.798 540.022 74.298 C 554.078 69.753 554.078 69.753 565.936 61.365 C 566.596 61.365 570.381 56.487 571.19 54.893 C 571.621 54.038 572.053 53.183 572.498 52.303 C 572.933 51.445 573.293 50.546 573.815 49.705 Z" style="stroke-width: 1; fill: #ffffff;" transform="matrix(0.9999999999999999, 0, 0, 0.9999999999999999, 0, -1.4210854715202004e-14)"/>
  <path d="M 391.936 174.365 C 392.926 174.365 393.916 174.365 394.936 174.365 C 392.936 179.365 392.936 179.365 391.901 181.689 C 389.791 187.541 389.68 193.674 392.326 199.346 C 394.087 202.121 395.943 204.752 397.936 207.365 C 404.871 216.709 405.847 224.943 404.936 236.365 C 403.624 244.495 401.742 251.364 395.186 256.74 C 392.406 259.085 389.749 261.472 387.186 264.053 C 386.617 264.624 386.049 265.195 385.463 265.783 C 384.185 267.107 382.96 268.481 381.748 269.865 C 379.936 271.365 379.936 271.365 378.069 271.209 C 368.364 267.37 360.043 251.514 353.936 243.365 C 353.38 242.67 352.824 241.974 352.252 241.258 C 350.936 239.365 350.936 239.365 351.057 237.322 C 352.076 235.053 353.2 233.769 354.998 232.053 C 355.546 231.52 356.094 230.988 356.658 230.439 C 358.936 228.365 358.936 228.365 360.837 226.972 C 367.049 222.182 368.782 217.539 370.623 210.053 C 373.544 198.85 376.937 189.642 385.186 181.303 C 385.998 180.453 385.998 180.453 386.826 179.586 C 388.511 177.827 390.214 176.087 391.936 174.365 Z" style="stroke-width: 1; fill: #ffffff;" transform="matrix(0.9999999999999999, 0, 0, 0.9999999999999999, 0, -1.4210854715202004e-14)"/>
  <path d="M 447.936 132.365 C 448.266 132.365 448.596 132.365 448.936 132.365 C 448.47 142.037 446.934 151.227 444.873 160.678 C 444.588 162.015 444.303 163.353 444.02 164.691 C 443.332 167.918 442.638 171.142 441.936 174.365 C 442.735 173.789 442.735 173.789 443.551 173.202 C 449.135 169.313 454.647 166.522 460.998 164.115 C 462.444 163.557 462.444 163.557 463.919 162.988 C 476.603 158.205 489.599 154.345 502.564 150.405 C 506.712 149.126 510.826 147.765 514.936 146.365 C 512.754 148.761 510.699 150.16 507.787 151.564 C 506.958 151.965 506.128 152.365 505.273 152.778 C 504.378 153.198 503.483 153.619 502.561 154.053 C 501.628 154.495 500.696 154.937 499.735 155.392 C 493.358 158.365 486.91 160.993 480.311 163.428 C 465.955 168.739 452.423 174.933 439.721 183.518 C 437.485 185.001 435.339 186.201 432.936 187.365 C 433.123 186.712 433.309 186.058 433.502 185.385 C 435.462 178.386 437.06 171.363 438.498 164.24 C 440.993 152.023 440.993 152.023 441.994 147.361 C 442.141 146.677 442.287 145.993 442.437 145.289 C 443.618 140.732 445.771 136.528 447.936 132.365 Z" style="stroke-width: 1; fill: #ffffff;" transform="matrix(0.9999999999999999, 0, 0, 0.9999999999999999, 0, -1.4210854715202004e-14)"/>
</svg>